<?xml version="1.0" encoding="utf-8"?>
<!-- Generator: Adobe Illustrator 21.0.0, SVG Export Plug-In . SVG Version: 6.00 Build 0)  -->
<svg version="1.1" id="Layer_1" xmlns="http://www.w3.org/2000/svg" xmlns:xlink="http://www.w3.org/1999/xlink" x="0px" y="0px"
	 viewBox="0 0 288 288" style="enable-background:new 0 0 288 288;" xml:space="preserve">
<style type="text/css">
	.st0{clip-path:url(#SVGID_2_);fill:#2E3192;}
	.st1{clip-path:url(#SVGID_2_);fill:#ED1E24;}
</style>
<g>
	<defs>
		<rect id="SVGID_1_" width="288" height="288"/>
	</defs>
	<clipPath id="SVGID_2_">
		<use xlink:href="#SVGID_1_"  style="overflow:visible;"/>
	</clipPath>
	<path class="st0" d="M244.2,179.3c13.8,6.5,26.7,12.5,40.2,18.8c-4.5,10.6-11,19.5-16.5,29.7c8.6,4.2,4.8,8.8,1,14
		c-11.6,15.5-11.5,15.6-28.2,4.5c-27.4,26-60.2,40.2-98.2,38.9c-37.5-1.3-71.1-13.7-99.1-40.3c-3.9,2.7-7.6,5.2-12,8.2
		c-6.9-7.8-13.6-15.4-20.5-23.3c2.3-2,4.1-3.5,6.4-5.5c-4.3-8-8.6-16-13.4-24.8c12.1-6.5,23.8-12.8,36-19.3
		c20.3,44.8,53.1,72.2,103.1,71.9C192.5,251.7,225.6,225.3,244.2,179.3 M38.5,183.8c-6.9,3.7-13.6,7.3-20.4,10.8
		c-2.8,1.4-3,3.1-1.8,5.9c6.9,15.2,15.7,29,27.4,40.9c40.9,41.3,116.1,58.4,174.2,19.9c23.4-15.5,40.3-36.5,51.9-61.8
		c0.9-2,2.4-4.3-0.6-5.6c-7.9-3.5-15.5-8-23.9-10.4c-21.4,51.5-61.8,70.3-97.4,71.3C96,256.2,60.5,230.2,38.5,183.8 M281,199.7
		c-1.8-1.1-2.7-1.7-3.7-2.1c-1-0.4-2.1-0.5-3.5-0.9c-7.4,17.7-17.8,33.3-30.8,47.1c1.7,1.9,3.1,3.3,6,4
		C262.3,234,271.2,216.9,281,199.7 M41.1,242.4c-12.5-13-21.5-27.9-28.5-44c-3.3,0.8-5.9,1.2-3.8,5.2c7.3,13.6,14.9,26.9,25.7,38.1
		C35.9,243.1,37.4,246,41.1,242.4 M265.8,230.5c-4.5,6.9-9.4,13.2-14.8,19.2c5.4,3.6,7.5,2.1,16.6-10.9
		C269.8,235.9,272.5,233,265.8,230.5 M35.2,246.7c-4.9-6-9.6-11.4-14-17.1c-2.8-3.7-4.4-2-6.5,0.9c5.1,5.7,10,11.2,14.8,16.9
		C31.8,250.1,33.5,249.5,35.2,246.7"/>
	<path class="st0" d="M235.7,47.5c0-3.5,0.6-7-0.6-10.7c-1.2-0.2-2.5-0.5-3.8-0.6c-10.2-0.5-10.2-0.5-10.2,9.5c0,13,0.1,26,0,39
		c-0.1,6.5-3.9,10.3-9.6,10.2c-6.1-0.1-9.4-3.6-9.5-10.2c-0.1-9,0-18.1,0-27.1c0-7,0-13.9,0-20.9c-5.8-0.8-10.5-0.8-15.5,0.1
		c-0.2,1.4-0.6,2.7-0.6,4c0,16.3-0.2,32.5,0,48.8c0.1,10.5,8.6,19,19.1,19.1c5.2,0,10.4-0.5,16-0.9c0.2,4.2,0.7,7.9-0.8,12.4
		c-8.8-9.4-18.8-10.3-29.8-7.4c-3,0.8-6.1,1.2-8.9,2.4c-10.1,4.4-18.8,2.2-26.9-4.6c-1.6-1.4-3.5-3.3-5.8-2.7
		c-7.8,2.1-16.4,2.1-23.4,6.6c-3.8,2.5-7.1,3.1-10.7,0.2c-3.1,2.9-5.8,5.6-8.6,8.3c-3.6-3.5-7.3-6.9-10.7-10.6
		c-2.1-2.4-5.7-2.9-8.4-1.3c-6.7,4.1-13.3,8.5-21,11.7V49.2h41.8V107c4.9-0.1,9,0.9,13.1-0.7V36.5c-2.7-1.5-5.7,0.6-7.6-1.8
		c1.4-18.7,13.9-30,32.1-28.8C159.2,6.6,171.5,21,170.8,36h-15.9c1.2,4.7-2.5,9.9,2.3,12.3c3.4,1.7,3.2,3.6,3.2,6.2
		c0,14.5,0,29.1,0,43.6c0,2.3-0.8,4.9,1.3,7.2c4.5-0.3,9.3,0.7,13.8-0.5c0.3-0.9,0.5-1.3,0.5-1.7c0.1-15.9,0.2-31.7,0.1-47.6
		c0-3.9-0.2-7.6,5.3-7.5c-0.4-4.2,1.7-9.8-1-11.1c-4.6-2.1-4.3-5.6-5.2-8.9c-4.5-14.7-16.6-24.2-31-24.2c-17.3,0-28.9,8.5-32.7,25.1
		c-1.3,5.4-3.4,7-8.8,6.8c-16.5-0.4-33-0.1-50.2-0.1c-0.2,2.4-0.4,3.9-0.4,5.4c0,37.3,0,74.5,0,111.7c0,5.5,0.8,11,1.9,16.4
		c11.8,57.7,71.7,79,113.7,67.8c42.1-11.3,67.1-41.3,68.1-84.8c0.8-35,0.3-70.1,0.3-105.1 M208.7,118.5c0.8,1.4,0.8,3.9-1.6,4
		c-4.6,0.2-7.8-2-9.2-7.3C203,113.1,206.4,114.5,208.7,118.5 M166.4,121c-3.9,1.9-6.9-0.2-9.5-2c-4-2.7-7.8-4.4-12.4,0.5
		C147.3,110.8,154.8,111.6,166.4,121 M72.6,157.3c3.6-0.6,7.4-0.8,11.5-3.4c-5.9-2.3-10.9-2.5-16.2-1c-1.4-2.3-0.4-4.6,0.1-7.1
		c4.7-1.5,9.5,0.9,15.5-0.7c-3.7-2.7-7-2.8-9.7-2.7c-7,0.4-8.2-3.2-7.5-8.9c0.2-1.5,0.2-3,0.4-4.9c4.5-0.3,9.1-2.3,11.6,4.2
		c2.1-2.4,2.9-6.7,7.6-3.4c1.3,3.5-1.1,6.8-3.2,10.3c3.3,3.5,7.1,6.3,11.3,8.3c-4.4,8.5-11.2,13.1-20.2,14.4
		c-2.1,0.3-5.4,1.7-6.1-1.7C66.9,156.7,70.4,157.7,72.6,157.3 M106.6,161.4H86.7c2.6-3.3,8.5-1.5,8.3-8.4c3.7,4.5,8.8,3.1,11.2,8.4
		 M97.5,147.9c4.8,0.8,7.7-2,12.1-4.3c0.4,4.1,5.7,4.2,5.6,10.1C109.5,149.2,102.2,156.4,97.5,147.9 M143.6,227.2
		c-38.3-1.4-76-30.5-75.6-58.7h150.2C216.4,200.5,180.4,228.6,143.6,227.2 M118.4,157.4c8.1-3.8,16.5-6.8,25.7-7
		C135.7,153.5,128.5,160.6,118.4,157.4 M220,144.2c0,1.4-0.6,3.1-2,2.9c-6.9-0.9-12.9,6.1-20.2,2.2c-1.4-0.8-3.4-0.8-5.1,0.5
		c-0.9,2-0.7,4.2-0.2,6.4c0.3,1.4,1.3,2.3,2.7,2.6c1.5,0.3,2.2-0.4,3.1-1.6c2.6-3.7,2.8-3.6,8.5-2.4c0.2,1.9-2.6,0.4-2.5,2.7
		c2.5,1.7,5.7,0.6,8.5,1.1c2.7,0.6,5.5,0.8,5.8,5.8c-8.2-6.4-15.4-5.9-23.2-1.2c-4.9,3-6-2.4-7.5-4.9c-3.1-0.3-1.8,3.3-4.8,3.1
		c-5.4-3.7-10.9-9.3-19.7-6c3.2,6.1,10.7,2.6,15.2,8.4c-5.8-0.4-10.2,2.7-14.5-3c-2.4-3.2-8.1-3.7-12.4,0.3c-4.5,4.2-10,0.9-15,1.2
		c-0.3,0-0.9-1-0.9-1.5c-0.1-0.9,0.4-2,1.3-1.9c7.8,1.3,10.6-6.6,16.5-8.9c1.8-0.7,3.9-1.3,4.8-0.3c4.8,5.2,10.7,3.5,16.5,3.5
		c4.7-0.1,9.5,0,14.7,0c-0.7-4.4-2.8-6.4-6.3-5.7c-4.8,0.8-9.1,0.6-13.3-2c-1.5-0.9-3.4-2.3-4.5,1.1c-0.8,2.4-3,0.8-4.6,0.5
		c-7.2-1-11.6-6.8-17.8-10c-3.1,4.6-0.8,6.5,3.8,8c-11.2-2.1-21.4,10.2-32.4,1.8c-0.3-2.3,0.8-2.5,1.8-3c0.8-0.3,1.4-0.9,2.1-1.4
		c-0.3-0.6-0.5-1.3-0.7-1.3c-4.9,0.2-9.9-1.1-14.4,2.3c-2.3,1.7-5.6,1.1-8.3,0c-6-2.5-2.8-5.5-0.2-8c-0.4-1.9-1.6-1.7-2.7-1.7
		c-1.7,0-3.1-0.4-3-2.5c0.2-2.4,1.8-2.7,3.8-2.6c3.5,0,7,0,10.6,0c16.5,0,32.9,0,49.1,0c2.1,3.6,0.2,7.2,1.8,10.3
		c4.4,2,5.8-3.2,9.7-3.1c-2.6-3-4.8,0.4-7.2-1.6c-0.9-1.4-1.3-3.7,0.7-5.2c1.3-0.9,3.4-1,4.5,1.2c0.2,0.5,1.3,1.2,1.5,1.1
		c7.6-5.5,16.2-2.6,23.5-1c11.1,2.4,21.8-3.1,32.9,0.7C220.9,135.1,220,139.6,220,144.2"/>
	<path class="st0" d="M185.8,210.6c-8,1.3-15.4,0.4-22.8,0.5c-6.1,0.1-11.8,0.4-15,7c-1.4,3-4,2.2-5.4-0.6
		c-2.7-5.3-7.3-6.4-12.7-6.3c-7.9,0.2-15.8,0-24.9,0c0-9.1,0-17.8,0-26.5c0-14.6,0-14.6,14.9-14.7c7.9,0,15.9-0.1,23.3,3.5
		c1.8,0.9,3.2,0.6,4.9-0.1c10.9-4.7,22.4-3.4,33.8-2.9c2.6,0.1,4,1.1,4,4C185.7,186.6,185.8,198.4,185.8,210.6 M142.9,209.1
		c0-10.1,0.1-19.9,0-29.8c0-2.7-2.4-3.8-4.5-4.1c-9.7-1.5-19.5-2.1-29.4-0.6v32.5C120.3,208.1,131.3,206.8,142.9,209.1 M182.6,206.9
		c0-9.9,0-19.1,0-28.3c0-2.5-0.5-4.3-3.5-4.5c-8.6-0.5-17.2-0.6-25.7,1c-2.7,0.5-5.2,1.5-5.2,4.9c0,9.6,0,19.2,0,29.1
		C159.8,206.6,170.8,208.4,182.6,206.9"/>
	<path class="st0" d="M119.7,178.1v27.7c-0.6,0-1.2,0-1.8,0c-1.2-9.2-0.6-18.4,0-27.6c0.6,0.1,1.1,0.3,1.7,0.4"/>
	<path class="st0" d="M130.4,178.1v27.5c-0.6,0-1.2,0-1.7,0c-1.3-9.1-0.6-18.2-0.5-27.3c0.8,0,1.5,0,2.3,0"/>
	<path class="st0" d="M125.7,178.1v27.4c-0.6,0-1.1,0-1.7,0c-1.3-9-0.3-18.1-0.7-27.1c0.8,0,1.6,0,2.4,0"/>
	<path class="st0" d="M136.4,178.1v27.4c-0.6,0-1.2,0-1.7,0c-1-9-0.6-17.9-0.4-26.9c0.7,0,1.4,0,2.1,0"/>
	<path class="st0" d="M157.9,178.1v27.2c-0.6,0-1.2,0-1.2,0v-27.1C156.7,178.2,157.3,178.2,157.9,178.1"/>
	<path class="st0" d="M161.5,205.5v-27.2c1.1-0.1,0.7,0,1.8-0.1c1.4,9.1,0.7,18.3,0.6,27.4C163.1,205.6,162.3,205.6,161.5,205.5"/>
	<path class="st0" d="M168.6,178.1v27.4c-3.3-8.9-2-18-2.4-27.1c0.8,0,1.6-0.1,2.4-0.1"/>
	<path class="st0" d="M174.5,178.5c-0.3,9,0.7,18-0.7,26.9c-0.6,0-1.1,0-1.7,0v-26.9C173,178.4,173.8,178.5,174.5,178.5"/>
	<path class="st0" d="M54.4,225.8c-0.9-1.1-1.3-1.6-2.2-2.7c-3.5,2.7-5.2,4.1-8.6,6.9c0-0.8,0-1.2,0-2c1.6-1.2,2.4-1.8,3.9-3
		c0.2-0.2,0.3-0.5,0.2-1.1s-0.2-1-0.5-1.3c-0.4-0.5-1.3-0.9-2.8-1.1c-1.6-0.2-2.5-0.5-2.7-0.8c-0.1-0.1-0.2-0.2-0.3-0.5
		c-0.4-0.6-0.5-1.1-0.5-1.2c0-0.3-0.1-1.5,0.5-3.1c0.5,0.2,0.7,0.3,1.1,0.5c-0.2,0.2-0.3,0.5-0.5,0.9c-0.1,0.5-0.1,0.8,0.1,1.1
		c0.2,0.3,0.8,0.5,1.7,0.8c0.6,0.1,1.1,0.2,1.6,0.3c1.2-1,1.3-2.3,0.4-3.6c-0.2-0.3-0.5-0.8-0.8-1.5c-0.2-0.4-0.2-0.9,0-1.5
		c-0.1-0.1-0.1-0.8,0-2.1c3.5,5.6,5.3,8.3,9.3,13.2C54.3,224.7,54.3,225.1,54.4,225.8 M48.3,224.2c1.2-0.9,1.8-1.4,3-2.3
		c-1.6-2.1-2.4-3.2-3.9-5.4c0.1,1.5-0.1,2.4-0.7,2.8c-0.2,0.1-0.3,0.2-0.5,0.3c0.1,0.1,0.4,0.3,0.9,0.6c0.5,0.2,0.8,0.4,0.9,0.6
		c0.3,0.4,0.4,0.9,0.4,1.8C48.4,222.8,48.3,223.3,48.3,224.2"/>
	<path class="st0" d="M62.6,234.7c-0.9-0.9-1.4-1.4-2.3-2.3c-3.1,3.1-4.7,4.6-7.8,7.6c-0.1-0.3-0.1-0.8,0-1.5c0.1-0.5,0.2-1,0.3-1.4
		c0.1-1,0-2.1-0.4-3.4c-0.4-1.3-1-2.4-1.9-3.4c0.1-1.1,0.1-1.6,0.2-2.7c3.1,1.3,5.7,2.7,8.1,4.3c0.2-0.2,0.3-0.3,0.5-0.5
		c-2.4-2.5-3.5-3.8-5.8-6.5c0-0.7,0-1.1-0.1-1.8c3.4,4.2,5.2,6.2,8.9,9.9C62.4,233.6,62.5,233.9,62.6,234.7 M53.3,237
		c1.7-1.7,2.6-2.5,4.3-4.1c-1.6-1-3.4-1.9-5.4-2.7C53.3,232.7,53.7,235,53.3,237 M50.9,235.4c-0.2,0.2-0.5,0.3-0.8,0.2
		c-0.3-0.1-0.7-0.2-0.9-0.5c-0.3-0.3-0.5-0.7-0.5-1.1c0-0.4,0-0.7,0.3-0.9c0.2-0.2,0.5-0.2,0.8-0.2c0.3,0.1,0.6,0.3,0.9,0.6
		c0.3,0.3,0.4,0.7,0.5,1.1C51.2,234.9,51.1,235.2,50.9,235.4"/>
	<path class="st0" d="M74.4,244.7c-2.4-1.7-3.5-2.7-5.8-4.6c-0.2,0.2-0.3,0.3-0.5,0.6c0.1,0,0.1,0.1,0.2,0.2c1,0.8,1.6,1.9,1.8,3.3
		c0.2,1.3,0,2.4-0.6,3.2c-0.3,0.4-0.8,0.7-1.3,0.8c-0.6,0.1-1.2-0.1-1.8-0.6c-0.4-0.3-0.6-0.7-0.8-1.1c-0.1-0.4-0.1-0.8,0.1-1.1
		c0.3-0.3,0.7-0.4,1.3-0.3c0.3,0.1,0.5,0.3,0.7,0.4c0.3,0.3,0.6,0.7,0.8,1.4c0,0,0.1-0.1,0.1-0.1c0.5-0.6,0.5-1.3,0.2-2.3
		c-0.3-0.9-0.8-1.7-1.5-2.3c-0.1-0.1-0.2-0.2-0.3-0.2c-2.2,2.6-3.3,4-5.5,6.6c-0.1-0.3-0.1-0.4-0.2-0.6c0.1-0.4,0.2-0.6,0.3-1
		c0.1-0.4,0.1-1.1,0-2c-0.3-2-1.1-3.6-2.3-5c-0.1-1.1-0.1-1.6-0.2-2.7c2.8,0.6,5.4,1.6,7.8,2.8c0.2-0.3,0.3-0.4,0.5-0.6
		c-2.6-2.2-3.8-3.4-6.2-5.8c-0.1-0.7-0.1-1.1-0.2-1.8c4.9,5,7.5,7.3,12.9,11.3C74.2,243.7,74.3,244,74.4,244.7 M62.4,245.3
		c1.5-1.7,2.2-2.6,3.7-4.3c-1-0.5-2.7-1-5-1.6C62.2,241.3,62.6,243.2,62.4,245.3"/>
	<path class="st0" d="M78.8,247.8c-1.1-0.8-1.7-1.1-2.8-1.9c-2.6,3.7-3.9,5.5-6.5,9.2c-0.2-0.7-0.3-1.1-0.5-1.8
		c1.9-2.6,2.9-3.9,4.8-6.5c0.4-0.5,0.4-1.1,0.2-1.8c-0.2-0.7-0.7-1.2-1.3-1.7c-0.2-0.7-0.3-1-0.4-1.7c0.4,0.2,0.7,0.4,0.9,0.7
		c0.9,0.7,1.5,1.4,1.6,2.2c0.1,0.4,0,1.2-0.3,2.3c0.6-1.4,1.3-2.8,2.3-4.1c0.1,0.2,0.1,0.3,0.2,0.6c-0.3,0.6-0.4,1.2-0.3,1.8
		c0.7,0.5,1,0.7,1.7,1.2C78.5,246.8,78.6,247.1,78.8,247.8"/>
	<path class="st0" d="M88.7,253.7c-1.1-0.6-1.7-0.9-2.8-1.5c-2.2,3.8-3.2,5.7-5.4,9.5c-0.2-0.2-0.3-0.7-0.4-1.4
		c0-0.5-0.1-0.9-0.1-1.4c-0.1-1-0.5-2-1.2-3.1c-0.7-1.1-1.6-1.9-2.6-2.7c-0.2-1-0.3-1.6-0.5-2.6c3.2,0.3,6,0.8,8.7,1.6
		c0.1-0.2,0.2-0.4,0.4-0.6c-2.9-1.7-4.3-2.5-7-4.4c-0.2-0.7-0.3-1-0.5-1.7c4.2,2.9,6.4,4.3,10.8,6.7
		C88.3,252.7,88.5,253.1,88.7,253.7 M80.6,258.6c1.2-2.1,1.8-3.1,3-5.2c-1.8-0.5-3.7-0.8-5.7-0.9C79.6,254.6,80.5,256.6,80.6,258.6
		 M78,257.8c-0.2,0.2-0.4,0.4-0.7,0.4c-0.3,0.1-0.7,0-1-0.2c-0.3-0.2-0.6-0.5-0.7-0.9c-0.1-0.4-0.1-0.7,0-0.9
		c0.2-0.2,0.4-0.4,0.7-0.4c0.3,0,0.7,0.1,1,0.3c0.3,0.2,0.6,0.5,0.7,0.9C78.1,257.3,78.1,257.6,78,257.8"/>
	<path class="st0" d="M93.7,256.2c-1.4-0.6-2-1-3.4-1.7c-2,3.9-3,5.9-5.1,9.8c-0.3-0.6-0.5-1-0.8-1.6c1.9-3.5,2.8-5.3,4.7-8.8
		c-0.6-0.3-0.9-0.5-1.5-0.8c-0.3-0.7-0.4-1-0.7-1.7c1.1,0.6,1.7,1,2.9,1.6c0.1-0.3,0.1-0.5,0.2-0.8c0.1-0.4,0-1-0.2-2
		c-0.4-1.7-1.8-3.3-4.2-4.7c-0.5-0.3-1.2-0.6-1.9-0.9c-1-0.4-1.5-0.4-1.7-0.1c-0.2,0.3,0.3,0.8,1.3,1.5c1.5,1,2.5,1.7,2.9,2.1
		c1,0.9,1.2,1.8,0.7,2.7c-0.1,0.2-0.3,0.4-0.4,0.5c-0.5-0.3-0.7-0.4-1.2-0.7c0.5,0,0.8-0.1,0.9-0.3c0.2-0.4-0.3-1-1.5-1.8
		c-0.7-0.5-1.1-0.7-1.8-1.2c-0.6-0.4-1.1-0.9-1.4-1.5c-0.4-0.7-0.4-1.3-0.1-1.7c0.3-0.5,1.2-0.6,2.4-0.3c1,0.3,1.9,0.6,2.7,1.1
		c0.7,0.4,1.6,1.1,2.5,2.1c0.4,0.4,0.9,1.1,1.3,2c0.6,1.2,0.8,2.7,0.5,4.7c0.9,0.4,1.3,0.7,2.1,1.1
		C93.3,255.3,93.4,255.6,93.7,256.2"/>
	<path class="st0" d="M112.8,260.9c-1.3-1.5-2.1-2.4-2.4-2.6c-0.9-0.8-1.9-1.4-3.2-1.8c-1.4-0.5-2.7-0.4-4,0.2
		c-0.8,0.4-1.2,0.7-1.3,0.9c0,0,0,0.4,0.1,1.1c0.9,0.4,1.4,0.5,2.3,0.9c0.3,0.6,0.5,0.9,0.9,1.5c-1.3-0.4-1.9-0.7-3.2-1.1
		c-1.6,4.1-2.3,6.1-3.9,10.2c-0.4-0.6-0.6-0.9-1-1.5c1.5-3.7,2.2-5.5,3.6-9.2c-0.7-0.3-1.1-0.4-1.8-0.7c-0.3-0.6-0.5-0.9-0.8-1.5
		c1.3,0.5,1.9,0.8,3.2,1.3c-0.2-0.3-0.4-0.6-0.5-1c-0.2-0.4-0.2-0.7-0.2-0.9c0.1-0.3,0.3-0.6,0.6-0.7c1.8-1.1,3.5-1.4,5.2-0.8
		c2.4,0.9,4.4,2.6,6.2,5.3C112.7,260.4,112.8,260.6,112.8,260.9"/>
	<path class="st0" d="M118,264.5c-1.3-0.3-1.9-0.4-3.1-0.8c-1.1,4.3-1.6,6.4-2.7,10.7c-0.4-0.6-0.6-0.9-1.1-1.5
		c0.5-1.9,0.8-2.9,1.3-4.8c0.1-0.3-0.1-0.6-0.5-1c-0.4-0.4-0.7-0.6-1.1-0.7c-0.6-0.2-1.4,0.2-2.7,0.9c-1.3,0.8-2.1,1.2-2.5,1.1
		c-0.1,0-0.3-0.1-0.5-0.1c-0.6-0.2-0.9-0.5-1-0.5c-0.2-0.2-0.8-1.1-1.3-2.7c0.4-0.1,0.7-0.2,1.1-0.3c0,0.2,0,0.6,0.1,1
		c0.1,0.4,0.4,0.7,0.6,0.8c0.3,0.1,0.8-0.1,1.7-0.5c0.5-0.3,0.9-0.5,1.4-0.8c0.3-1.5-0.2-2.5-1.6-3c-0.3-0.1-0.8-0.3-1.4-0.6
		c-0.3-0.2-0.6-0.6-0.8-1.1c-0.1-0.1-0.5-0.6-1.1-1.6c5.5,2.1,8.3,2.9,14,4.2C117.4,263.7,117.6,264,118,264.5 M112.6,267.1
		c0.4-1.5,0.6-2.2,1-3.7c-2.3-0.6-3.5-1-5.8-1.7c0.9,1.1,1.2,1.9,1,2.6c-0.1,0.2-0.1,0.4-0.2,0.5c0.2,0,0.5,0,1-0.2
		c0.5-0.1,0.8-0.2,1-0.1c0.4,0.1,0.8,0.5,1.2,1.1C111.9,265.9,112.2,266.3,112.6,267.1"/>
	<path class="st0" d="M130.6,264.4c-1.6-1.3-2.5-2-2.8-2.2c-1-0.7-2.1-1.1-3.4-1.3c-1.5-0.3-2.8,0-3.9,0.8c-0.7,0.5-1.1,0.9-1.1,1.1
		c0,0,0.1,0.4,0.3,1.1c1,0.2,1.4,0.3,2.4,0.5c0.4,0.5,0.6,0.8,1.1,1.3c-1.3-0.2-2-0.4-3.3-0.6c-0.9,4.3-1.4,6.4-2.3,10.7
		c-0.5-0.5-0.7-0.8-1.2-1.3c0.9-3.8,1.3-5.8,2.1-9.6c-0.8-0.2-1.1-0.3-1.9-0.4c-0.4-0.5-0.6-0.8-1-1.4c1.3,0.3,2,0.5,3.3,0.8
		c-0.2-0.3-0.5-0.6-0.7-0.9c-0.3-0.4-0.4-0.7-0.3-0.9c0.1-0.3,0.2-0.6,0.5-0.8c1.6-1.4,3.2-1.9,5-1.6c2.5,0.5,4.8,1.9,6.9,4.2
		C130.5,263.9,130.5,264.1,130.6,264.4"/>
	<path class="st0" d="M134,267c-3.8-0.3-5.7-0.6-9.5-1.2c-0.5,2.8-0.7,4.3-1.2,7.1c-0.1,0.5,0.2,0.8,1,0.9c0.8,0.1,1.7-0.1,2.7-0.7
		c1-0.6,1.6-1.2,1.8-1.8c-0.1,0-0.3,0-0.4-0.1c-0.5-0.1-0.9-0.2-1.2-0.5c-0.3-0.3-0.4-0.6-0.4-1c0.1-0.4,0.3-0.7,0.7-1
		c0.4-0.2,0.8-0.3,1.4-0.2c0.7,0.1,1.2,0.4,1.5,0.8c0.4,0.5,0.5,1,0.5,1.5c-0.1,1.3-0.7,2.2-1.8,2.9c-1.9,1.2-3.4,1.7-4.4,1.5
		c-1.5-0.2-2.4-1-2.6-2.4c0-0.2,0-0.7,0.2-1.5c0.4-2.3,0.6-3.5,1.1-5.8c-0.8-0.1-1.2-0.2-2.1-0.4c-0.3-0.5-0.5-0.8-0.8-1.3
		c3.9,0.8,5.8,1.1,9.7,1.6c0-0.1,0-0.2,0-0.3c0-0.1,0.1-0.2,0.1-0.3c0-0.3-0.1-0.5-0.4-0.7c-0.3-0.2-0.7-0.3-1-0.4
		c-0.4-0.1-1.1-0.1-1.9-0.2c-0.8-0.1-1.4-0.1-1.9-0.2c-1-0.2-1.8-0.5-2.5-1c-0.8-0.6-1.1-1.3-0.9-2c0.1-0.4,0.3-0.7,0.6-0.9
		c0.1-0.1,0.3-0.2,0.5-0.1c0,0,0,0,0,0c0,0.1,0,0.2,0,0.4c-0.2,0.1-0.4,0.3-0.4,0.5c-0.1,0.4,0.1,0.7,0.5,1c0.3,0.3,0.7,0.4,1.2,0.5
		c0,0,0.5,0.1,1.5,0.2c0,0,0,0-0.1,0c0,0,0,0,0.1,0c0.1,0,0.1,0,0.2,0c0.4,0,0.6,0.1,1,0.1c0.3,0,0.7,0.1,1,0.1
		c1.2,0.2,2.2,0.5,2.9,1.1c0.8,0.6,1.1,1.4,0.9,2.4c0.6,0.1,0.9,0.1,1.5,0.2C133.2,266.2,133.5,266.5,134,267"/>
	<path class="st0" d="M155.9,266.8c-2.8,0.3-4.2,0.4-7.1,0.5c0,0.3,0,0.5,0,0.8c0.1,0,0.2,0,0.3,0c1.2-0.1,2.4,0.4,3.4,1.2
		c1,0.8,1.6,1.8,1.6,2.8c0,0.5-0.1,1-0.5,1.5c-0.4,0.5-0.9,0.7-1.6,0.8c-0.5,0-0.9-0.1-1.3-0.3c-0.4-0.2-0.6-0.5-0.6-0.9
		c0-0.4,0.2-0.8,0.7-1.1c0.3-0.1,0.6-0.1,0.8-0.2c0.4,0,0.9,0.1,1.4,0.5c0-0.1,0-0.1,0-0.2c-0.1-0.7-0.5-1.3-1.3-1.8
		c-0.8-0.5-1.7-0.7-2.6-0.7c-0.1,0-0.3,0-0.4,0l0.3,8.6c-0.2-0.1-0.3-0.2-0.5-0.4c-0.2-0.4-0.3-0.6-0.5-0.9
		c-0.2-0.4-0.6-0.9-1.3-1.5c-1.5-1.2-3.1-1.9-4.8-2.1c-0.8-0.7-1.1-1.1-1.9-1.9c2.4-1.4,4.8-2.5,7.3-3.2c0-0.3,0-0.5,0-0.8
		c-3.2,0.1-4.8,0.1-8,0c-0.5-0.5-0.8-0.7-1.3-1.2c6.5,0.3,9.8,0.3,16.3-0.3C155,266.3,155.3,266.5,155.9,266.8 M147.7,275.3
		c-0.1-2.3-0.1-3.4-0.2-5.7c-1,0.3-2.5,1.1-4.6,2.2C145,272.5,146.5,273.7,147.7,275.3"/>
	<path class="st0" d="M163.5,265.8c-0.6,0.1-1.3,0.4-2.1,0.7c-2.8,1.4-4.1,3.5-3.8,6.6c0.2,1.5,1,2.5,2.7,3c0.1,0,0.3,0,0.6,0
		c0.3,0,0.4-0.1,0.3-0.1c-0.1,0-0.4-0.1-0.6-0.4c-0.2-0.3-0.4-0.5-0.4-0.6c0-0.3,0.1-0.6,0.4-0.9c0.3-0.3,0.7-0.5,1.1-0.5
		c0.3,0,0.6,0,0.8,0.1c0.6,0.1,1,0.5,1.1,1c0.1,0.5-0.1,1-0.6,1.4c-0.4,0.4-1,0.7-1.7,0.8c-1.5,0.2-2.8-0.3-3.9-1.4
		c-0.9-0.9-1.3-2-1.5-3.3c-0.2-1.9,0.6-3.7,2.1-5.6c-1.6,0.2-2.4,0.3-4,0.4c-0.6-0.4-0.8-0.6-1.4-1c3.7-0.3,5.5-0.5,9.2-1
		C162.6,265.3,162.9,265.5,163.5,265.8"/>
	<path class="st0" d="M176.7,262.9c-1.3,0.4-1.9,0.5-3.2,0.9c1.1,4.3,1.7,6.4,2.8,10.7c-0.7-0.3-1-0.4-1.7-0.7
		c-0.6-2.3-0.9-3.5-1.4-5.8c-0.1-0.3-0.3-0.6-0.8-0.8c-0.4-0.2-0.8-0.3-1.3-0.2c-0.7,0.2-1,0.6-0.9,1.2c0,0.1,0.1,0.3,0.3,0.7
		c-0.2,0.1-0.3,0.2-0.5,0.3c0,0,0,0,0,0c0-0.1-0.1-0.2-0.4-0.4c-0.5-0.4-0.9-0.7-1.3-0.8c-0.5-0.2-1-0.2-1.6-0.1
		c-0.6,0.1-1.2,0.4-1.6,0.8c-0.4,0.4-0.6,0.9-0.5,1.4c0.1,0.8,0.8,1.3,2.1,1.2c-0.3-0.2-0.5-0.5-0.6-0.8c-0.1-0.3,0-0.6,0.3-0.9
		c0.3-0.3,0.6-0.4,1-0.5c0.5-0.1,0.9,0,1.3,0.3c0.4,0.3,0.6,0.7,0.7,1.1c0.1,0.4-0.1,0.7-0.5,1.1c-0.4,0.3-0.8,0.5-1.3,0.6
		c-1.2,0.2-2.2,0.1-3-0.3c-0.8-0.4-1.2-1.1-1.4-2c-0.1-0.8,0-1.5,0.4-2.1c0.5-0.7,1.1-1.2,2-1.3c1-0.2,2.1,0.1,3.1,0.8
		c0-0.2,0.1-0.5,0.4-0.9c0.3-0.4,0.6-0.6,0.9-0.7c1.1-0.2,2,0.2,2.8,1.3c-0.3-1.2-0.4-1.7-0.7-2.9c-4,1-6,1.4-10.1,2
		c-0.6-0.4-0.9-0.5-1.5-0.9c5.8-0.8,8.7-1.4,14.4-3C175.7,262.4,176.1,262.6,176.7,262.9"/>
	<path class="st0" d="M191.7,257.5c-3,1.3-4.6,2-7.7,3.1c-0.1,0-0.3,0.2-0.5,0.4c-0.2,0.3-0.3,0.4-0.2,0.5c0.1,0.3,0.6,0.4,1.4,0.4
		c0.7-0.1,1.3-0.2,1.7-0.4c0.4-0.2,1.2-0.6,2.3-1.4c0.7,0.2,1.5,0.5,2.5,0.8c-1,1.6-1.1,3.4-0.3,5.4c0.3,0.8,1,1.6,2.2,2.4
		c0,0,0,0-0.1,0.1c-0.3,0.2-0.9,0.3-1.4,0.2c-0.1-0.1-0.5-0.7-1.4-1.8c-0.6-0.7-1-1.3-1.2-1.9c-0.3-0.9-0.5-2-0.4-3.3
		c-0.8,0.3-1.7,0.6-2.7,0.7c-1.2,0.2-2.1,0.2-2.6-0.1c-0.2-0.1-0.6-0.3-1-0.5c0,0-0.1,0-0.1,0c-0.4,0.1-0.7,0.6-1,1.4
		c-0.3,0.8-0.4,1.3-0.3,1.7c0.1,0.5,0.5,0.6,1.2,0.4c0.3-0.1,0.8-0.4,1.5-1c0.7-0.6,1-0.9,1-0.9c0.1,0,0.1,0,0.2,0c0,0,0,0,0.1,0
		c0.1,0,0.4,0.1,0.9,0.3c1,0.5,1.7,1,2,1.7c0.3,0.8,0.2,1.5-0.3,2.3c-0.5,0.8-1.3,1.4-2.3,1.7c-2.5,0.8-4.8,0.1-6.7-2.2
		c-0.6-0.7-1.1-2-1.6-3.8c0.2,0,0.5,0.1,0.8,0.1c0,0.1,0.1,0.3,0.1,0.4c0.7,2.4,2.3,3.8,4.9,4.1c0.5,0.1,1,0,1.5-0.2
		c0.7-0.2,1.3-0.6,1.9-1c0.7-0.5,1-1.1,0.8-1.5c-0.1-0.2-0.2-0.3-0.4-0.5c-0.2-0.1-0.4-0.2-0.6-0.1c-0.1,0-0.4,0.2-0.9,0.6
		c-0.5,0.4-1,0.6-1.3,0.7c-0.9,0.3-1.7,0.3-2.4-0.1c-0.7-0.4-1.2-0.9-1.4-1.6c-0.1-0.5-0.1-1,0.2-1.6c0.1-0.2,0.4-0.8,0.8-1.6
		c-2,0.6-3,0.9-5,1.5c-0.6-0.3-0.9-0.4-1.6-0.7c6.5-1.7,9.8-2.8,16-5.5C190.7,257.2,191,257.3,191.7,257.5"/>
	<path class="st0" d="M200.1,265.6c0.3,0.5,0.2,1.3-0.2,2.1c-0.4,0.9-0.9,1.6-1.5,2.1c-0.2-0.1-0.3-0.2-0.4-0.3
		c0.4-0.4,0.8-0.9,1.1-1.5c0.3-0.6,0.3-1.1,0.2-1.4c-0.1-0.3-0.3-0.4-0.5-0.3c-0.1,0-0.2,0.1-0.4,0.2c-0.2,0.1-0.3,0.2-0.4,0.2
		c-0.4,0.2-0.8,0.3-1.1,0.2c-0.3-0.1-0.6-0.2-0.7-0.5c-0.4-0.8,0-1.4,1-1.9C198.5,264,199.5,264.3,200.1,265.6"/>
	<path class="st0" d="M213.3,245c-3,2.2-4.5,3.2-7.6,5.1c0,0,0,0,0,0.1c0.1,0.1,0.2,0.2,0.3,0.3c0.2,0.2,0.3,0.2,0.4,0.2
		c0.7,0.2,1.7,0.2,2.8-0.2c0.9-0.3,1.8-0.6,2.7-0.9c0.8-0.2,1.5,0,1.9,0.5c0.6,0.9,0.7,2.2,0.3,4c-0.4,1.9-1.3,3.2-2.4,3.9
		c-0.5,0.3-1.1,0.4-1.8,0.2c-0.7-0.1-1.2-0.4-1.4-0.7c-1.6-2.7-2.4-4.1-4.1-6.8c-0.7,0.4-1,0.6-1.7,1c-0.7-0.1-1-0.2-1.7-0.3
		c4.2-2.4,6.3-3.7,10.3-6.6C212.3,245,212.6,245,213.3,245 M212.3,251.7c-0.1-0.1-0.2-0.2-0.3-0.3c-2.1,0.8-3.9,0.8-5.3,0.2
		c1.3,2.1,1.9,3.1,3.2,5.2c0.2,0.3,0.5,0.4,0.8,0.2c0.7-0.4,1.3-1.5,1.7-3.3C212.6,252.9,212.6,252.2,212.3,251.7"/>
	<path class="st0" d="M223,237.2c-2.9,2.6-4.4,3.9-7.4,6.2c1.3,1.6,1.9,2.5,3.1,4.1c0.5,0.6,1,0.7,1.5,0.2c0.3-0.2,0.5-0.6,0.7-1
		c0.4-1,0.4-2.2-0.1-3.5c-1,0.6-1.8,0.6-2.2,0.1c-0.2-0.3-0.3-0.6-0.2-1c0.1-0.4,0.3-0.8,0.6-1c0.6-0.5,1.3-0.6,2.2-0.4
		c0.2,0,0.5,0.3,0.9,0.8c0.5,0.6,0.9,1.6,1.1,3c1,0.3,1.6,0.6,1.9,0.8c0.5,0.6,0.6,1.4,0.3,2.2c-0.3,0.8-0.9,1.5-1.8,2.3
		c-2.3,1.8-4.6,2.1-6.8,0.9c-0.7-0.4-1.2-0.7-1.5-1c0.3-0.1,0.4-0.1,0.7-0.2c2.4,1.1,4.5,1,6.2-0.3c0.5-0.4,1-1,1.5-1.7
		c0.5-0.8,0.7-1.4,0.4-1.7c-0.2-0.3-0.6-0.3-1.2-0.1c-0.1,1-0.7,1.9-1.6,2.6c-0.2,0.1-0.4,0.3-0.8,0.4c-0.4,0.2-0.6,0.2-0.7,0.3
		c-0.2,0.1-0.5,0.1-0.7,0.1c-0.7-0.1-1.3-0.3-1.6-0.8c-1.3-1.7-1.9-2.5-3.2-4.2c-0.9,0.7-1.4,1-2.3,1.7c-0.7,0-1-0.1-1.7-0.1
		c3.2-2.3,4.8-3.5,7.9-6c0.1-0.1,0.2-0.3,0.2-0.5c0-0.2,0-0.4-0.1-0.5c-0.3-0.4-0.9-0.2-1.9,0.6c-0.3,0.3-0.8,0.6-1.3,1.1
		c-0.6,0.5-1.1,0.9-1.4,1.1c-0.7,0.5-1.2,0.8-1.5,1c-0.6,0.3-1.2,0.4-1.9,0.4c-0.7,0-1.2-0.2-1.5-0.6c-0.1-0.2-0.3-0.5-0.4-0.8
		c-0.1-0.4-0.2-0.7,0-0.8c0,0,0.3-0.1,0.9-0.2c-0.2,0.3-0.3,0.5-0.2,0.7c0,0.1,0.1,0.2,0.4,0.6c0.2,0.3,1,0.1,2.2-0.7
		c0,0,0.8-0.5,2.1-1.6c1.2-0.9,2-1.5,2.5-1.6c1.3-0.4,2.4-0.2,3.2,0.7c0.7-0.6,1-0.8,1.6-1.4C221.9,237.2,222.3,237.2,223,237.2"/>
	<path class="st0" d="M232.5,227.3c-1,1.1-1.5,1.7-2.5,2.8c3.3,3.1,4.9,4.6,8.2,7.7c-0.9,0.2-1.3,0.2-2.1,0.4
		c-1.6-1.6-2.5-2.5-4.1-4.1c-0.6-0.6-1.4-0.8-2.6-0.8c-1.2,0-2.2,0.3-2.9,1c-1.1,1.1-1.5,2.2-1.2,3.4c0.2-0.4,0.5-0.8,1-1.2
		c0.6-0.6,1.2-0.9,1.8-1.1c0.6-0.1,1.1,0,1.6,0.4c0.6,0.6,0.7,2,0.4,4.3c-0.9,0.1-1.3,0.1-2.2,0.2c0.2-0.6,0.3-1.3,0.4-2.1
		c0.1-1.1,0.1-1.7,0-1.8c-0.2-0.2-0.5-0.2-0.9,0.2c-0.1,0.1-0.3,0.5-0.7,1.3c-0.3,0.7-0.6,1.2-0.7,1.3c-0.3,0.3-0.7,0.4-1.2,0.4
		c-0.5,0-0.8-0.2-1-0.4c-0.3-0.3-0.5-0.8-0.5-1.4c-0.1-1.2,0.4-2.4,1.5-3.5c0.9-0.8,1.8-1.4,2.8-1.8c1-0.3,1.9-0.4,2.6-0.1
		c0.6,0.2,0.9,0.4,1.6,0.6c-0.2-0.1-1-0.8-2.4-2c-1-0.8-1.8-1.5-2.4-2.1c0.4-0.1,0.6-0.1,1-0.2c0,0.1,0.1,0.2,0.2,0.3
		c0.4,0.3,0.7,0.4,1,0.3c0.2-0.1,0.5-0.4,1-0.9c0.2-0.3,0.4-0.4,0.6-0.7C231.5,227.5,231.8,227.5,232.5,227.3"/>
	<path class="st0" d="M238.9,237.9c-0.2,0.1-0.6,0.1-1.5,0c-0.4-0.1-1-0.2-1.6-0.1c-0.8,0.1-1.8,0.8-2.9,1.9
		c-0.3,0.3-0.7,0.8-1.3,1.4c-0.6,0.6-1,1.1-1.4,1.4c-1,0.9-2,1.5-3.1,1.6c-1.1,0.2-2-0.1-2.6-0.8c-0.3-0.3-0.5-0.7-0.8-1.1
		c-0.1-0.1-0.1-0.2-0.2-0.3c0,0,0,0,0-0.1c0.2,0,0.5,0,1-0.1c0,0.2,0.1,0.3,0.2,0.5c0.6,0.6,1.5,0.7,2.7,0.2
		c0.3-0.1,0.8-0.5,1.6-1.1c1.6-1.4,2.6-2.3,3.1-2.6c1.3-0.9,2.4-1.4,3.5-1.5c1-0.1,1.6-0.1,1.9,0
		C237.8,237.2,238.3,237.4,238.9,237.9"/>
	<path class="st0" d="M236.2,222.8c-0.9,1.1-1.3,1.7-2.3,2.8c3.5,2.9,5.2,4.4,8.6,7.3c-0.7,0.2-1.1,0.3-1.8,0.4
		c-2.4-2.1-3.7-3.2-6.1-5.3c-0.5-0.4-1.1-0.5-1.8-0.4c-0.7,0.2-1.3,0.6-1.8,1.3c-0.7,0.1-1.1,0.2-1.8,0.3c0.3-0.3,0.5-0.7,0.8-0.9
		c0.8-0.9,1.6-1.4,2.4-1.5c0.4-0.1,1.2,0.1,2.3,0.4c-1.4-0.6-2.7-1.5-4-2.6c0.2-0.1,0.4-0.1,0.6-0.2c0.6,0.4,1.2,0.5,1.7,0.4
		c0.5-0.7,0.8-1,1.4-1.7C235.2,223.1,235.5,223,236.2,222.8"/>
	<path class="st0" d="M244.2,211.4c-0.8,1.3-1.3,2-2.1,3.3c3.7,2.4,5.5,3.6,9.2,6.1c-0.3,0.1-0.5,0.2-0.8,0.3
		c-1.3-0.4-2.4-0.4-3.2,0c-1.2,0.5-2,1-2.4,1.3c0,0,0,0,0,0c0.1,0,0.1,0.4,0,1.1c-0.1,0.6-0.3,1.1-0.7,1.6c-0.6,0.8-1.3,1.3-2.1,1.4
		c-0.1-0.1-0.2-0.1-0.4-0.2c-0.2-0.1-0.3-0.1-0.4-0.2c-0.5-0.4-0.7-0.9-0.6-1.6c0.1-0.6,0.4-1.3,0.9-2c0.4-0.5,0.7-0.8,0.8-0.8
		c-0.7-0.5-1.5-0.6-2.4-0.2c-0.5,0.2-1.1,0.7-1.9,1.3c-0.7,0.6-1.1,0.9-1.3,0.9c-0.3,0.2-0.6,0.2-0.9,0.2c-0.4,0-0.6,0-0.7,0
		c0,0-0.6,0.2-1.8,0.4c3.8-4.6,5.6-7.1,8.9-12.3C243.2,211.8,243.5,211.6,244.2,211.4 M247.5,220.1c-2.5-1.7-3.7-2.5-6.2-4.2
		c-1.5,2.3-2.3,3.4-4,5.5c1.5-0.6,2.3-0.9,2.5-1c1-0.3,1.8-0.4,2.4-0.2c1,0.3,1.6,0.6,1.9,0.9C245,220.8,246.1,220.5,247.5,220.1"/>
	<path class="st1" d="M141.5,11.7c-2.3,7.8-17.6,13.9-1.5,24l0,0v0l2.4,1.5l3-2.7l1.4-2.4l0,0C153.4,20.4,151.9,15.2,141.5,11.7
		 M137,30.5c-1.4-1.4-1.6-2.9-0.9-4.8c1.5-3.9,5-5.9,7.6-8.9c1.9,3.8-0.7,13.4-3.7,14.5C138.8,31.7,137.8,31.3,137,30.5"/>
	<rect x="130.4" y="36" class="st0" width="19.1" height="70.4"/>
</g>
</svg>
